<mxfile host="app.diagrams.net" modified="2023-11-19T11:32:44.990Z" agent="Mozilla/5.0 (Windows NT 10.0; Win64; x64) AppleWebKit/537.36 (KHTML, like Gecko) Chrome/119.0.0.0 Safari/537.36 OPR/105.0.0.0" version="22.1.3" etag="d7JJ6bykpjyY4DiMQZ23" type="github">
  <diagram name="Page-1" id="5m4-1cE8AssWiqKOCgdI">
    <mxGraphModel>
      <root>
        <mxCell id="0" />
        <mxCell id="1" parent="0" />
      </root>
    </mxGraphModel>
  </diagram>
</mxfile>
